<svg width="30" height="27" viewBox="0 0 30 27" fill="none" xmlns="http://www.w3.org/2000/svg">
<path fill-rule="evenodd" clip-rule="evenodd" d="M14.0996 0.360215C14.3421 0.12899 14.6644 0 14.9995 0C15.3347 0 15.6569 0.12899 15.8995 0.360215L26.3338 10.2971L29.5945 13.4012C29.8453 13.6398 29.991 13.9684 29.9996 14.3145C30.0082 14.6606 29.8789 14.9959 29.6402 15.2467C29.4015 15.4974 29.073 15.6431 28.7269 15.6517C28.3807 15.6603 28.0454 15.531 27.7946 15.2923L26.7381 14.2841V24.1284C26.7381 24.8202 26.4633 25.4837 25.9741 25.9729C25.4849 26.4621 24.8214 26.7369 24.1296 26.7369H5.86949C5.17765 26.7369 4.51415 26.4621 4.02494 25.9729C3.53574 25.4837 3.26091 24.8202 3.26091 24.1284V14.2841L2.20443 15.291C1.95399 15.5297 1.61898 15.6591 1.27311 15.6508C0.927247 15.6425 0.598849 15.4971 0.360165 15.2467C0.12148 14.9962 -0.00793907 14.6612 0.000377397 14.3154C0.00869386 13.9695 0.154065 13.6412 0.404511 13.4025L3.66524 10.2971L14.0996 0.360215ZM5.86949 11.8009V24.1284H11.0867V17.6073C11.0867 16.5696 11.4989 15.5744 12.2327 14.8406C12.9665 14.1069 13.9618 13.6946 14.9995 13.6946C16.0373 13.6946 17.0325 14.1069 17.7663 14.8406C18.5002 15.5744 18.9124 16.5696 18.9124 17.6073V24.1284H24.1296V11.8009L14.9995 3.10431L5.86949 11.8009ZM16.3038 24.1284V17.6073C16.3038 17.2614 16.1664 16.9297 15.9218 16.6851C15.6772 16.4405 15.3454 16.3031 14.9995 16.3031C14.6536 16.3031 14.3219 16.4405 14.0773 16.6851C13.8327 16.9297 13.6952 17.2614 13.6952 17.6073V24.1284H16.3038Z" fill="#82B06D"/>
</svg>
