<svg width="24" height="24" viewBox="0 0 24 24" fill="none" xmlns="http://www.w3.org/2000/svg">
<path fill-rule="evenodd" clip-rule="evenodd" d="M7 8.24999C7 6.92391 7.52678 5.65214 8.46447 4.71446C9.40215 3.77678 10.6739 3.24999 12 3.24999C13.3261 3.24999 14.5979 3.77678 15.5355 4.71446C16.4732 5.65214 17 6.92391 17 8.24999C17 9.57607 16.4732 10.8478 15.5355 11.7855C14.5979 12.7232 13.3261 13.25 12 13.25C10.6739 13.25 9.40215 12.7232 8.46447 11.7855C7.52678 10.8478 7 9.57607 7 8.24999V8.24999ZM16.78 14.0287C17.9694 13.0448 18.8262 11.7179 19.2335 10.2289C19.6409 8.74004 19.5789 7.16171 19.056 5.70935C18.5331 4.25698 17.5748 3.00133 16.3119 2.11373C15.049 1.22614 13.543 0.749847 11.9994 0.749847C10.4558 0.749847 8.94973 1.22614 7.68682 2.11373C6.42391 3.00133 5.46563 4.25698 4.94276 5.70935C4.41988 7.16171 4.35788 8.74004 4.76521 10.2289C5.17254 11.7179 6.02936 13.0448 7.21875 14.0287C3.2325 15.4325 0.75 18.5587 0.75 22C0.75 22.3315 0.881696 22.6495 1.11612 22.8839C1.35054 23.1183 1.66848 23.25 2 23.25C2.33152 23.25 2.64946 23.1183 2.88388 22.8839C3.1183 22.6495 3.25 22.3315 3.25 22C3.25 19.1625 6.19375 15.75 12 15.75C17.8062 15.75 20.75 19.1625 20.75 22C20.75 22.3315 20.8817 22.6495 21.1161 22.8839C21.3505 23.1183 21.6685 23.25 22 23.25C22.3315 23.25 22.6495 23.1183 22.8839 22.8839C23.1183 22.6495 23.25 22.3315 23.25 22C23.25 18.5587 20.77 15.4325 16.78 14.0287Z" fill="#82B06D"/>
</svg>
