<svg width="21" height="16" viewBox="0 0 21 16" fill="none" xmlns="http://www.w3.org/2000/svg">
<path fill-rule="evenodd" clip-rule="evenodd" d="M3.8125 1.75C3.8125 2.1644 3.64788 2.56183 3.35485 2.85485C3.06183 3.14788 2.6644 3.3125 2.25 3.3125C1.8356 3.3125 1.43817 3.14788 1.14515 2.85485C0.85212 2.56183 0.6875 2.1644 0.6875 1.75C0.6875 1.3356 0.85212 0.938171 1.14515 0.645146C1.43817 0.35212 1.8356 0.1875 2.25 0.1875C2.6644 0.1875 3.06183 0.35212 3.35485 0.645146C3.64788 0.938171 3.8125 1.3356 3.8125 1.75ZM7.25 0.5C6.91848 0.5 6.60054 0.631696 6.36612 0.866117C6.1317 1.10054 6 1.41848 6 1.75C6 2.08152 6.1317 2.39946 6.36612 2.63388C6.60054 2.8683 6.91848 3 7.25 3H19.75C20.0815 3 20.3995 2.8683 20.6339 2.63388C20.8683 2.39946 21 2.08152 21 1.75C21 1.41848 20.8683 1.10054 20.6339 0.866117C20.3995 0.631696 20.0815 0.5 19.75 0.5H7.25ZM7.25 6.75C6.91848 6.75 6.60054 6.8817 6.36612 7.11612C6.1317 7.35054 6 7.66848 6 8C6 8.33152 6.1317 8.64946 6.36612 8.88388C6.60054 9.1183 6.91848 9.25 7.25 9.25H19.75C20.0815 9.25 20.3995 9.1183 20.6339 8.88388C20.8683 8.64946 21 8.33152 21 8C21 7.66848 20.8683 7.35054 20.6339 7.11612C20.3995 6.8817 20.0815 6.75 19.75 6.75H7.25ZM7.25 13C6.91848 13 6.60054 13.1317 6.36612 13.3661C6.1317 13.6005 6 13.9185 6 14.25C6 14.5815 6.1317 14.8995 6.36612 15.1339C6.60054 15.3683 6.91848 15.5 7.25 15.5H19.75C20.0815 15.5 20.3995 15.3683 20.6339 15.1339C20.8683 14.8995 21 14.5815 21 14.25C21 13.9185 20.8683 13.6005 20.6339 13.3661C20.3995 13.1317 20.0815 13 19.75 13H7.25ZM2.25 9.5625C2.6644 9.5625 3.06183 9.39788 3.35485 9.10485C3.64788 8.81183 3.8125 8.4144 3.8125 8C3.8125 7.5856 3.64788 7.18817 3.35485 6.89515C3.06183 6.60212 2.6644 6.4375 2.25 6.4375C1.8356 6.4375 1.43817 6.60212 1.14515 6.89515C0.85212 7.18817 0.6875 7.5856 0.6875 8C0.6875 8.4144 0.85212 8.81183 1.14515 9.10485C1.43817 9.39788 1.8356 9.5625 2.25 9.5625V9.5625ZM2.25 15.8125C2.6644 15.8125 3.06183 15.6479 3.35485 15.3549C3.64788 15.0618 3.8125 14.6644 3.8125 14.25C3.8125 13.8356 3.64788 13.4382 3.35485 13.1451C3.06183 12.8521 2.6644 12.6875 2.25 12.6875C1.8356 12.6875 1.43817 12.8521 1.14515 13.1451C0.85212 13.4382 0.6875 13.8356 0.6875 14.25C0.6875 14.6644 0.85212 15.0618 1.14515 15.3549C1.43817 15.6479 1.8356 15.8125 2.25 15.8125V15.8125Z" fill="#82B06D"/>
</svg>
